<?xml version="1.0"?>
<svg xmlns="http://www.w3.org/2000/svg" xmlns:xlink="http://www.w3.org/1999/xlink" version="1.1" id="Layer_1" x="0px" y="0px" width="100%" viewBox="0 0 512 512" enable-background="new 0 0 512 512" xml:space="preserve" style="background-color:transparent;">
<path fill="none" opacity="1.000000" stroke="none" d=" M231.000000,513.000000   C154.368149,513.000000 77.736305,513.000000 1.052232,513.000000   C1.052232,342.445679 1.052232,171.891342 1.052232,1.000000   C73.354416,1.000000 145.709366,1.000000 218.746735,1.364466   C218.614365,4.483529 217.280655,7.203491 217.093979,10.000016   C216.718781,15.621292 216.969131,21.284323 216.542816,26.962156   C213.717453,27.338648 211.264526,27.491327 208.910736,28.056643   C178.971680,35.247128 150.915100,46.831623 125.356842,64.157059   C106.791573,76.742081 90.383057,91.711685 75.723770,108.693695   C64.893791,121.239662 55.327229,134.655899 47.457920,149.188049   C38.726513,165.312210 31.163145,182.007309 26.624474,199.874100   C24.525330,208.137527 22.861294,216.511475 20.594326,224.906891   C11.824455,225.314346 6.026956,231.350708 6.007223,239.923050   C5.964648,258.417877 6.176778,276.915466 5.911904,295.406555   C5.793050,303.703857 12.099092,311.491272 20.999580,311.578674   C21.778059,316.274658 22.314041,320.617126 23.375166,324.827240   C29.248501,348.130249 38.043468,370.247131 49.967892,391.165283   C64.730629,417.062408 84.087021,439.108185 106.812126,458.059296   C122.873802,471.453613 140.627243,482.474518 159.869995,491.081360   C182.047729,501.001007 204.894241,508.230225 229.072693,511.077393   C229.780792,511.160797 230.360458,512.334595 231.000000,513.000000  z"/>
<path fill="none" opacity="1.000000" stroke="none" d=" M306.000000,1.000000   C374.967926,1.000000 443.935822,1.000000 512.951904,1.000000   C512.951904,171.555222 512.951904,342.110474 512.951904,513.000000   C440.312256,513.000000 367.623962,513.000000 294.149963,512.646912   C298.530670,511.196869 303.667755,509.929321 308.868774,509.032684   C329.912323,505.404724 349.968384,498.653992 369.100159,489.348419   C388.496185,479.914276 406.458496,468.252960 422.746979,453.927551   C437.762115,440.721985 451.465057,426.382843 462.948639,410.069489   C478.406067,388.110992 490.133118,364.246735 497.885010,338.467224   C503.565308,319.576996 506.715546,300.205811 507.851898,280.610321   C508.948822,261.695404 507.435181,242.832687 504.065948,224.113907   C500.603394,204.876770 494.931366,186.378723 487.094299,168.501755   C476.957092,145.377899 463.575012,124.219124 446.762390,105.499695   C432.936371,90.105621 417.620605,76.181610 400.266602,64.597366   C382.764282,52.914108 364.278046,43.163193 344.442444,36.348415   C332.618286,32.286068 320.187164,29.990389 308.016418,26.438034   C307.461578,17.640297 309.538788,9.094847 306.000000,1.000000  z"/>
<path fill="#D4F2F6" opacity="1.000000" stroke="none" d=" M308.028870,26.900501   C320.187164,29.990389 332.618286,32.286068 344.442444,36.348415   C364.278046,43.163193 382.764282,52.914108 400.266602,64.597366   C417.620605,76.181610 432.936371,90.105621 446.762390,105.499695   C463.575012,124.219124 476.957092,145.377899 487.094299,168.501755   C494.931366,186.378723 500.603394,204.876770 504.065948,224.113907   C507.435181,242.832687 508.948822,261.695404 507.851898,280.610321   C506.715546,300.205811 503.565308,319.576996 497.885010,338.467224   C490.133118,364.246735 478.406067,388.110992 462.948639,410.069489   C451.465057,426.382843 437.762115,440.721985 422.746979,453.927551   C406.458496,468.252960 388.496185,479.914276 369.100159,489.348419   C349.968384,498.653992 329.912323,505.404724 308.868774,509.032684   C303.667755,509.929321 298.530670,511.196869 293.682098,512.646912   C273.312439,513.000000 252.624878,513.000000 231.468658,513.000000   C230.360458,512.334595 229.780792,511.160797 229.072693,511.077393   C204.894241,508.230225 182.047729,501.001007 159.869995,491.081360   C140.627243,482.474518 122.873802,471.453613 106.812126,458.059296   C84.087021,439.108185 64.730629,417.062408 49.967892,391.165283   C38.043468,370.247131 29.248501,348.130249 23.375166,324.827240   C22.314041,320.617126 21.778059,316.274658 21.463860,311.513275   C31.600473,310.980225 41.272865,310.927185 51.204628,310.960052   C51.639488,311.094788 51.814972,311.143616 52.007149,311.580750   C55.443130,329.012878 61.005131,345.380859 68.589890,360.967682   C81.387985,387.268005 98.543602,410.291931 120.820221,429.491211   C133.482513,440.404297 146.911774,450.065552 161.682068,457.850830   C185.147293,470.219238 209.980118,477.916962 236.385620,481.292786   C255.871078,483.783875 275.253296,483.719238 294.441223,480.706512   C335.420288,474.272369 371.867767,457.645691 403.390381,430.285583   C424.412109,412.039764 441.205109,390.591248 453.880249,365.981293   C464.830811,344.719757 472.099152,322.178925 475.183594,298.338562   C478.298096,274.266113 477.974213,250.350204 473.361237,226.473969   C468.771454,202.717789 460.476990,180.349060 448.121338,159.610870   C442.971863,150.967789 436.560608,143.076477 430.799103,134.591370   C430.958893,133.999557 431.042633,133.659698 431.437927,133.103699   C435.575653,126.163086 434.987701,119.649796 429.794678,114.190147   C425.325684,109.491646 420.666687,104.973221 416.071503,100.395454   C408.300354,92.653763 402.315765,92.031586 392.890869,97.675751   C391.354523,96.189293 390.069275,94.875885 388.596313,93.825798   C371.841370,81.881119 353.848358,72.212830 334.444550,65.372681   C319.712921,60.179546 304.648865,56.145828 288.920654,54.545727   C288.926392,50.729473 288.972534,47.369953 289.482117,44.006950   C293.233887,44.000359 296.524200,44.070095 299.809875,43.976166   C304.177551,43.851299 306.966339,41.908573 307.251465,37.202839   C307.459686,33.765644 307.766174,30.334400 308.028870,26.900501  z"/>
<path fill="#8379C1" opacity="1.000000" stroke="none" d=" M308.016418,26.438034   C307.766174,30.334400 307.459686,33.765644 307.251465,37.202839   C306.966339,41.908573 304.177551,43.851299 299.809875,43.976166   C296.524200,44.070095 293.233887,44.000359 289.011963,43.996849   C280.584198,43.994167 273.086578,44.134018 265.597595,43.940968   C262.186188,43.853031 260.849487,44.871540 260.948975,48.453232   C261.175537,56.607410 261.040497,64.771629 260.585144,72.955765   C252.170746,73.341232 244.223587,73.702713 236.210342,73.594482   C236.075668,67.075005 236.007065,61.025234 235.995514,54.522331   C236.011398,50.725319 235.970215,47.381447 236.401093,44.021393   C242.202713,44.005207 247.532257,44.005207 252.083542,44.005207   C251.295395,41.149006 250.138336,38.790989 250.076782,36.404701   C249.849976,27.614143 249.732666,18.802925 250.124023,10.023989   C250.259750,6.979305 251.995209,4.005937 253.000000,0.999998   C270.354218,1.000000 287.708466,1.000000 305.531342,1.000000   C309.538788,9.094847 307.461578,17.640297 308.016418,26.438034  z"/>
<path fill="#6F62B6" opacity="1.000000" stroke="none" d=" M252.531342,0.999998   C251.995209,4.005937 250.259750,6.979305 250.124023,10.023989   C249.732666,18.802925 249.849976,27.614143 250.076782,36.404701   C250.138336,38.790989 251.295395,41.149006 252.083542,44.005207   C247.532257,44.005207 242.202713,44.005207 235.941986,44.007698   C231.870270,44.007145 228.729034,44.045353 225.589355,43.991951   C220.072708,43.898117 217.447861,41.363148 217.183456,35.842304   C217.041336,32.874840 217.031082,29.901056 216.961334,26.930122   C216.969131,21.284323 216.718781,15.621292 217.093979,10.000016   C217.280655,7.203491 218.614365,4.483529 219.214600,1.364466   C230.020889,1.000000 241.041794,1.000000 252.531342,0.999998  z"/>
<path fill="#D4F2F6" opacity="1.000000" stroke="none" d=" M216.542816,26.962156   C217.031082,29.901056 217.041336,32.874840 217.183456,35.842304   C217.447861,41.363148 220.072708,43.898117 225.589355,43.991951   C228.729034,44.045353 231.870270,44.007145 235.469910,44.023884   C235.970215,47.381447 236.011398,50.725319 235.560608,54.529079   C233.574570,55.028252 232.049744,54.886124 230.590988,55.133522   C199.305618,60.439392 170.122757,71.173935 143.640625,88.876259   C139.393890,91.715050 135.057571,94.419815 130.542816,97.140747   C130.322983,97.094963 129.877518,97.038612 129.683945,96.736732   C121.682640,92.544334 116.149475,93.312279 110.092575,99.241371   C105.819412,103.424377 101.625748,107.688644 97.399155,111.919182   C89.512550,119.813164 88.764282,125.100960 93.823181,135.126129   C72.510017,161.797195 58.617973,191.616684 51.725426,224.877258   C51.288597,225.007385 51.115658,225.065338 50.479980,225.074280   C40.344826,224.961960 30.672407,224.898636 20.999989,224.835312   C22.861294,216.511475 24.525330,208.137527 26.624474,199.874100   C31.163145,182.007309 38.726513,165.312210 47.457920,149.188049   C55.327229,134.655899 64.893791,121.239662 75.723770,108.693695   C90.383057,91.711685 106.791573,76.742081 125.356842,64.157059   C150.915100,46.831623 178.971680,35.247128 208.910736,28.056643   C211.264526,27.491327 213.717453,27.338648 216.542816,26.962156  z"/>
<path fill="#FE2BA8" opacity="1.000000" stroke="none" d=" M20.594326,224.906891   C30.672407,224.898636 40.344826,224.961960 50.271713,225.325424   C44.293949,228.739990 40.472805,233.380798 40.499695,240.820312   C37.237545,240.918137 34.426670,241.037338 31.623325,240.939880   C28.074785,240.816498 27.069784,242.739059 27.062809,245.897766   C27.055887,249.032150 28.032988,251.004959 31.553680,250.984222   C34.687546,250.965759 37.822327,251.102554 40.963638,251.627594   C40.965942,259.672150 40.961315,267.259949 40.670349,275.037720   C36.717381,278.780762 32.870068,282.172607 29.479731,285.972198   C28.252787,287.347229 27.115561,290.181030 27.740902,291.482910   C28.531528,293.128906 31.036112,294.410767 33.034325,294.901703   C35.551205,295.520111 38.303440,295.180664 40.958122,295.656281   C40.539886,303.523499 45.291576,307.502716 50.945259,310.874146   C41.272865,310.927185 31.600473,310.980225 21.463802,311.098694   C12.099092,311.491272 5.793050,303.703857 5.911904,295.406555   C6.176778,276.915466 5.964648,258.417877 6.007223,239.923050   C6.026956,231.350708 11.824455,225.314346 20.594326,224.906891  z"/>
<path fill="#A6E6F0" opacity="1.000000" stroke="none" d=" M430.723053,134.843353   C436.560608,143.076477 442.971863,150.967789 448.121338,159.610870   C460.476990,180.349060 468.771454,202.717789 473.361237,226.473969   C477.974213,250.350204 478.298096,274.266113 475.183594,298.338562   C472.099152,322.178925 464.830811,344.719757 453.880249,365.981293   C441.205109,390.591248 424.412109,412.039764 403.390381,430.285583   C371.867767,457.645691 335.420288,474.272369 294.441223,480.706512   C275.253296,483.719238 255.871078,483.783875 236.385620,481.292786   C209.980118,477.916962 185.147293,470.219238 161.682068,457.850830   C146.911774,450.065552 133.482513,440.404297 120.820221,429.491211   C98.543602,410.291931 81.387985,387.268005 68.589890,360.967682   C61.005131,345.380859 55.443130,329.012878 52.472424,311.511475   C59.314762,311.089813 65.708519,311.125793 72.160942,311.526611   C82.295853,352.787567 102.554062,387.609039 134.587296,415.170990   C173.154526,448.354889 217.956619,464.350922 269.348053,462.910950   C277.400360,462.242035 285.088409,462.002655 292.598572,460.720734   C337.748932,453.014191 376.165344,432.795410 407.055511,398.661346   C436.205139,366.450653 452.858429,328.580353 456.678558,285.524689   C459.948761,248.667435 453.793427,213.105469 436.397522,180.089981   C430.605255,169.096893 423.445251,158.824478 417.186829,148.015778   C421.883148,143.487076 426.303101,139.165207 430.723053,134.843353  z"/>
<path fill="#FE50B8" opacity="1.000000" stroke="none" d=" M72.102272,311.161804   C65.708519,311.125793 59.314762,311.089813 52.455734,311.123138   C51.814972,311.143616 51.639488,311.094788 51.204628,310.960052   C45.291576,307.502716 40.539886,303.523499 41.423599,295.574524   C47.542675,295.071289 53.202484,294.947754 58.857071,295.068512   C62.629169,295.149048 63.837814,293.235748 63.792656,289.822357   C63.749203,286.538239 62.323341,284.918884 58.923325,285.004852   C54.872978,285.107269 50.818062,285.028992 45.540390,285.028992   C49.378193,281.579254 52.000458,278.798248 55.032505,276.576447   C63.988216,270.014069 64.935005,260.945740 63.243179,251.100891   C62.182781,244.930359 57.687496,241.276443 51.422073,241.001953   C47.935764,240.849228 44.443748,240.826675 40.954308,240.745453   C40.472805,233.380798 44.293949,228.739990 50.734451,225.374420   C51.115658,225.065338 51.288597,225.007385 52.190659,224.947174   C59.314213,224.910309 65.708649,224.875732 72.562531,224.893463   C80.999542,224.905411 88.977112,224.865036 97.418701,224.886261   C101.918106,224.914093 105.953491,224.880310 110.454033,224.900452   C115.931374,224.955872 120.943558,224.957321 126.430664,224.976868   C137.941452,224.941681 148.977310,224.888412 160.476257,224.905609   C175.746109,224.983963 190.552902,224.967865 205.359573,225.007782   C215.975922,225.036407 221.978592,231.080582 221.996521,241.762344   C222.025558,259.064636 222.016327,276.367035 222.000534,293.669373   C221.989975,305.242676 216.153778,310.967987 204.422760,311.002960   C189.619522,311.047119 174.816376,311.110016 159.548248,311.094055   C148.041031,311.029785 136.998718,311.036255 125.493881,311.000885   C120.017166,311.023865 115.002998,311.088684 109.528389,311.101624   C105.031075,311.092010 100.994194,311.134216 96.495842,311.115662   C88.056999,311.090546 80.079636,311.126160 72.102272,311.161804  M136.013779,295.006653   C140.338272,295.013580 144.664734,295.106415 148.986832,295.008179   C156.231354,294.843445 160.815002,290.370361 160.916199,283.093506   C161.057251,272.949432 161.070877,262.799896 160.903671,252.656570   C160.788254,245.655136 156.198410,241.203354 149.241348,240.995834   C145.419113,240.881821 141.590317,240.929596 137.765381,240.977203   C129.650940,241.078171 125.190620,245.484650 125.101410,253.709015   C124.998589,263.188660 125.016365,272.670807 125.096260,282.150879   C125.158043,289.481750 127.875969,292.839966 136.013779,295.006653  M196.961533,292.607544   C198.357452,289.889740 200.839905,287.218170 200.957855,284.446014   C201.423965,273.491486 201.304672,262.502319 201.086212,251.532303   C200.967178,245.555252 196.527222,241.309647 190.528076,241.043091   C185.881348,240.836639 181.212112,240.848129 176.563873,241.035278   C170.522964,241.278503 166.018860,245.449448 165.894394,251.400909   C165.661560,262.536133 165.731995,273.681305 165.890152,284.819336   C165.956055,289.459930 168.644958,293.259552 172.939911,294.077728   C180.687744,295.553741 188.680099,296.547485 196.961533,292.607544  M102.101952,276.667297   C101.044533,273.263245 100.736290,269.330658 98.781372,266.559814   C93.990662,259.769623 86.034065,262.705078 79.281273,261.599854   C79.281273,257.997375 79.281273,254.647430 79.281273,250.966888   C85.670135,250.966888 91.644058,250.890244 97.614761,250.995682   C101.187935,251.058762 102.162857,249.230957 102.151566,246.002167   C102.140564,242.857040 101.397369,240.885162 97.721909,240.938995   C90.067192,241.051163 82.409531,241.003342 74.753395,240.962662   C70.520332,240.940170 68.780502,243.076675 68.837097,247.177368   C68.922081,253.334579 68.909920,259.494385 68.842072,265.652039   C68.792992,270.106262 71.061668,271.987457 75.325905,271.941803   C78.654366,271.906189 81.983559,271.931000 85.312393,271.940247   C91.965019,271.958740 92.108536,272.102844 92.095589,278.599213   C92.083153,284.838623 91.892418,285.013336 85.053368,285.027466   C80.892395,285.036041 76.696526,284.742371 72.590202,285.219818   C71.232712,285.377594 69.175240,287.461578 69.091789,288.770294   C68.966270,290.738678 70.305458,294.556671 71.006340,294.553070   C79.065384,294.511719 87.432251,295.083832 95.086052,293.080841   C101.971497,291.278992 102.483467,284.041870 102.101952,276.667297  M111.825562,283.976501   C114.082344,283.381409 117.691238,283.394836 118.294075,282.055389   C119.320396,279.774933 119.050667,276.419464 118.125511,273.968689   C117.690636,272.816711 114.418869,272.113708 112.515900,272.263641   C108.191246,272.604370 107.356941,279.363953 111.825562,283.976501  M114.408684,251.961609   C110.748787,251.596985 108.578316,252.808365 108.951591,256.932922   C109.207680,259.762604 107.977936,263.388092 112.549881,263.825867   C115.197777,264.079346 118.599716,264.368561 118.743217,260.693695   C118.864525,257.587097 121.259491,252.899277 114.408684,251.961609  z"/>
<path fill="#A6E6F0" opacity="1.000000" stroke="none" d=" M288.961060,55.002457   C304.648865,56.145828 319.712921,60.179546 334.444550,65.372681   C353.848358,72.212830 371.841370,81.881119 388.596313,93.825798   C390.069275,94.875885 391.354523,96.189293 392.738831,97.979401   C388.459656,102.857475 384.168640,107.136551 379.532104,111.322830   C366.656799,104.083183 354.421112,96.344109 341.523376,89.938011   C325.059601,81.760742 307.330109,77.247253 289.021332,74.485962   C288.966064,67.682945 288.963562,61.342701 288.961060,55.002457  z"/>
<path fill="#FE2CA9" opacity="1.000000" stroke="none" d=" M379.877625,111.415627   C384.168640,107.136551 388.459656,102.857475 392.902710,98.274750   C402.315765,92.031586 408.300354,92.653763 416.071503,100.395454   C420.666687,104.973221 425.325684,109.491646 429.794678,114.190147   C434.987701,119.649796 435.575653,126.163086 431.295288,132.774689   C426.219421,127.929283 421.635254,123.159409 416.968414,118.471855   C406.964905,108.424057 401.055054,108.340477 390.462311,117.989143   C389.980164,118.428345 389.381866,118.740013 388.538879,118.965729   C385.452576,116.352119 382.665100,113.883873 379.877625,111.415627  z"/>
<path fill="#978FCB" opacity="1.000000" stroke="none" d=" M288.920654,54.545727   C288.963562,61.342701 288.966064,67.682945 288.595459,74.492043   C282.129333,74.318535 276.036316,73.676170 269.497894,73.028015   C266.385773,72.992073 263.719086,72.961922 261.052368,72.931763   C261.040497,64.771629 261.175537,56.607410 260.948975,48.453232   C260.849487,44.871540 262.186188,43.853031 265.597595,43.940968   C273.086578,44.134018 280.584198,43.994167 288.548462,44.000328   C288.972534,47.369953 288.926392,50.729473 288.920654,54.545727  z"/>
<path fill="#FD50B7" opacity="1.000000" stroke="none" d=" M388.837677,119.111084   C389.381866,118.740013 389.980164,118.428345 390.462311,117.989143   C401.055054,108.340477 406.964905,108.424057 416.968414,118.471855   C421.635254,123.159409 426.219421,127.929283 430.983704,132.990845   C431.042633,133.659698 430.958893,133.999557 430.799103,134.591385   C426.303101,139.165207 421.883148,143.487076 416.898254,147.834564   C407.168121,138.277161 398.002899,128.694122 388.837677,119.111084  z"/>
<path fill="#6E62B6" opacity="1.000000" stroke="none" d=" M260.585144,72.955757   C263.719086,72.961922 266.385773,72.992073 269.216309,73.296982   C265.120667,74.147240 260.845795,74.627548 256.604279,75.314125   C233.607819,79.036530 211.878326,86.446869 191.488556,97.756882   C170.331955,109.492249 151.975693,124.674431 136.549377,143.246124   C123.957672,158.405243 113.479195,175.030426 106.421577,193.475616   C102.530876,203.644043 100.063644,214.357132 96.954666,224.824661   C88.977112,224.865036 80.999542,224.905411 72.620949,224.528336   C76.378212,207.305634 81.994507,191.008926 90.584160,175.944092   C95.988770,166.465302 102.213806,157.454315 108.354889,148.043869   C111.045685,144.884201 113.452385,141.914139 116.140419,138.762817   C126.002144,129.617737 135.582535,120.653908 145.490982,111.533646   C147.203232,110.464104 148.617172,109.592796 149.967133,108.631645   C170.329208,94.134193 192.726395,84.103287 216.984070,78.214050   C223.374039,76.662697 229.843475,75.438583 236.276413,74.064201   C244.223587,73.702713 252.170746,73.341232 260.585144,72.955757  z"/>
<path fill="#A6E6F0" opacity="1.000000" stroke="none" d=" M236.210342,73.594482   C229.843475,75.438583 223.374039,76.662697 216.984070,78.214050   C192.726395,84.103287 170.329208,94.134193 149.967133,108.631645   C148.617172,109.592796 147.203232,110.464104 145.237381,111.241783   C140.024689,106.466423 135.393677,101.826477 130.762650,97.186539   C135.057571,94.419815 139.393890,91.715050 143.640625,88.876259   C170.122757,71.173935 199.305618,60.439392 230.590988,55.133522   C232.049744,54.886124 233.574570,55.028252 235.503540,54.982216   C236.007065,61.025234 236.075668,67.075005 236.210342,73.594482  z"/>
<path fill="#A6E6F0" opacity="1.000000" stroke="none" d=" M108.070786,148.233475   C102.213806,157.454315 95.988770,166.465302 90.584160,175.944092   C81.994507,191.008926 76.378212,207.305634 72.161499,224.476013   C65.708649,224.875732 59.314213,224.910309 52.454548,224.874969   C58.617973,191.616684 72.510017,161.797195 94.118881,135.267090   C99.172714,139.583023 103.621750,143.908249 108.070786,148.233475  z"/>
<path fill="#0FD291" opacity="1.000000" stroke="none" d=" M108.354889,148.043869   C103.621750,143.908249 99.172714,139.583023 94.427963,135.116852   C88.764282,125.100960 89.512550,119.813164 97.399155,111.919182   C101.625748,107.688644 105.819412,103.424377 110.092575,99.241371   C116.149475,93.312279 121.682640,92.544334 129.400787,96.893692   C123.275177,103.334137 117.066803,109.156631 111.307419,115.393723   C109.565224,117.280418 108.540718,120.226913 108.100037,122.841759   C106.914589,129.875793 110.289856,135.009033 115.859085,138.944092   C113.452385,141.914139 111.045685,144.884201 108.354889,148.043869  z"/>
<path fill="#06E39C" opacity="1.000000" stroke="none" d=" M116.140427,138.762817   C110.289856,135.009033 106.914589,129.875793 108.100037,122.841759   C108.540718,120.226913 109.565224,117.280418 111.307419,115.393723   C117.066803,109.156631 123.275177,103.334137 129.594360,97.195572   C129.877518,97.038612 130.322983,97.094963 130.542816,97.140747   C135.393677,101.826477 140.024689,106.466423 144.909317,111.398224   C135.582535,120.653908 126.002144,129.617737 116.140427,138.762817  z"/>
<path fill="none" opacity="1.000000" stroke="none" d=" M40.499695,240.820312   C44.443748,240.826675 47.935764,240.849228 51.422073,241.001953   C57.687496,241.276443 62.182781,244.930359 63.243179,251.100891   C64.935005,260.945740 63.988216,270.014069 55.032505,276.576447   C52.000458,278.798248 49.378193,281.579254 45.540390,285.028992   C50.818062,285.028992 54.872978,285.107269 58.923325,285.004852   C62.323341,284.918884 63.749203,286.538239 63.792656,289.822357   C63.837814,293.235748 62.629169,295.149048 58.857071,295.068512   C53.202484,294.947754 47.542675,295.071289 41.419609,295.172729   C38.303440,295.180664 35.551205,295.520111 33.034325,294.901703   C31.036112,294.410767 28.531528,293.128906 27.740902,291.482910   C27.115561,290.181030 28.252787,287.347229 29.479731,285.972198   C32.870068,282.172607 36.717381,278.780762 41.006359,275.012573   C44.878578,271.960693 48.287281,269.283508 51.338100,266.246765   C55.148537,262.453949 54.260960,257.420807 53.093838,253.116852   C52.737892,251.804245 48.126968,251.511642 45.415623,251.026123   C43.983860,250.769745 42.446430,251.103485 40.956703,251.170807   C37.822327,251.102554 34.687546,250.965759 31.553680,250.984222   C28.032988,251.004959 27.055887,249.032150 27.062809,245.897766   C27.069784,242.739059 28.074785,240.816498 31.623325,240.939880   C34.426670,241.037338 37.237545,240.918137 40.499695,240.820312  z"/>
<path fill="#FE53B9" opacity="1.000000" stroke="none" d=" M40.963638,251.627594   C42.446430,251.103485 43.983860,250.769745 45.415623,251.026123   C48.126968,251.511642 52.737892,251.804245 53.093838,253.116852   C54.260960,257.420807 55.148537,262.453949 51.338100,266.246765   C48.287281,269.283508 44.878578,271.960693 41.292702,274.822571   C40.961315,267.259949 40.965942,259.672150 40.963638,251.627594  z"/>
<path fill="#8379C1" opacity="1.000000" stroke="none" d=" M97.418694,224.886261   C100.063644,214.357132 102.530876,203.644043 106.421577,193.475616   C113.479195,175.030426 123.957672,158.405243 136.549377,143.246124   C151.975693,124.674431 170.331955,109.492249 191.488556,97.756882   C211.878326,86.446869 233.607819,79.036530 256.604279,75.314125   C260.845795,74.627548 265.120667,74.147240 269.661743,73.302765   C276.036316,73.676170 282.129333,74.318535 288.648224,74.954819   C307.330109,77.247253 325.059601,81.760742 341.523376,89.938011   C354.421112,96.344109 366.656799,104.083183 379.532104,111.322830   C382.665100,113.883873 385.452576,116.352119 388.538879,118.965729   C398.002899,128.694122 407.168121,138.277161 416.621887,148.041397   C423.445251,158.824478 430.605255,169.096893 436.397522,180.089981   C453.793427,213.105469 459.948761,248.667435 456.678558,285.524689   C452.858429,328.580353 436.205139,366.450653 407.055511,398.661346   C376.165344,432.795410 337.748932,453.014191 292.598572,460.720734   C285.088409,462.002655 277.400360,462.242035 269.061310,462.663910   C264.559967,461.848328 260.777954,461.416718 257.025970,460.801758   C234.389862,457.091644 212.928314,449.961945 192.768967,438.919708   C168.988205,425.893860 148.817337,408.629974 132.211884,387.271332   C121.355156,373.306915 112.259621,358.167633 105.995888,341.610321   C102.261383,331.738678 99.923210,321.338837 96.957321,311.176422   C100.994194,311.134216 105.031075,311.092010 109.543213,311.478760   C112.737411,319.396179 115.046547,327.065369 118.254097,334.338348   C126.974419,354.111237 140.071030,370.722778 155.826004,385.419525   C167.116531,395.951721 179.646530,404.695038 193.563141,411.125793   C222.669907,424.575958 253.071793,430.093811 285.170563,425.149811   C302.778229,422.437805 319.577057,417.393433 335.262177,409.214478   C357.963348,397.377075 376.844513,380.956482 391.731354,359.947266   C419.176605,321.214813 427.095184,278.507233 417.190033,232.534897   C410.317993,200.639893 394.223175,173.755142 370.168610,151.541031   C355.951294,138.411514 340.135101,128.004105 322.161957,120.927147   C298.669189,111.676834 274.517761,107.493721 249.093414,109.803535   C228.228516,111.699112 208.582199,117.223091 190.090347,126.597260   C167.533722,138.031998 148.803619,154.339615 133.930008,174.775284   C122.902328,189.926849 114.348579,206.425903 109.988876,224.846512   C105.953491,224.880310 101.918106,224.914093 97.418694,224.886261  z"/>
<path fill="#6F62B7" opacity="1.000000" stroke="none" d=" M96.495842,311.115662   C99.923210,321.338837 102.261383,331.738678 105.995888,341.610321   C112.259621,358.167633 121.355156,373.306915 132.211884,387.271332   C148.817337,408.629974 168.988205,425.893860 192.768967,438.919708   C212.928314,449.961945 234.389862,457.091644 257.025970,460.801758   C260.777954,461.416718 264.559967,461.848328 268.614868,462.611694   C217.956619,464.350922 173.154526,448.354889 134.587296,415.170990   C102.554062,387.609039 82.295853,352.787567 72.160942,311.526642   C80.079636,311.126160 88.056999,311.090546 96.495842,311.115662  z"/>
<path fill="#05E39C" opacity="1.000000" stroke="none" d=" M160.013184,311.164825   C174.816376,311.110016 189.619522,311.047119 204.422760,311.002960   C216.153778,310.967987 221.989975,305.242676 222.000534,293.669373   C222.016327,276.367035 222.025558,259.064636 221.996521,241.762344   C221.978592,231.080582 215.975922,225.036407 205.359573,225.007782   C190.552902,224.967865 175.746109,224.983963 160.483719,224.527084   C165.113663,212.760300 169.323532,200.930435 175.551102,190.280411   C180.909790,181.116272 188.570129,173.298004 195.596695,164.898178   C203.836288,164.274887 207.297623,160.546982 206.015121,153.958313   C220.513992,140.950043 236.984344,131.880630 254.862564,125.501907   C254.969193,130.248657 254.981216,134.540009 254.997711,138.831314   C255.023117,145.440323 255.925446,146.433563 262.544434,147.605286   C262.543457,153.419571 262.539337,158.775909 262.304016,164.332825   C256.081879,166.940063 254.784668,171.465332 254.865967,177.638641   C255.170258,200.746643 254.939835,223.861664 254.572174,247.051712   C244.936981,251.263107 239.914108,258.534790 240.176788,268.587189   C240.433228,278.400452 245.604202,285.382538 254.944550,289.488159   C254.988632,293.092041 254.877594,296.243011 255.042480,299.379456   C255.288498,304.059662 258.257568,307.021881 262.463623,307.038239   C266.682800,307.054657 269.699921,304.115631 269.950836,299.447540   C270.137146,295.981171 270.022705,292.498627 270.267639,288.922211   C270.797974,288.664276 271.021698,288.429871 271.477295,288.076233   C272.785278,287.736542 273.780151,287.438599 274.901550,287.464355   C277.861481,292.280273 280.702576,296.767639 283.526947,301.265533   C298.086090,324.451416 312.640930,347.639954 326.850098,370.947845   C325.614838,371.517120 324.706726,371.930695 323.841919,372.420715   C317.427246,376.055389 317.052094,377.447052 320.680939,383.773560   C322.993683,387.805664 325.275757,391.855408 327.290955,396.150574   C309.168488,405.747070 290.064789,410.380676 270.046509,411.228027   C270.020660,405.669739 270.088257,400.543732 269.979828,395.421448   C269.874817,390.459320 268.005188,389.010590 262.160706,389.067932   C256.827698,389.120239 255.126373,390.636566 255.007568,395.598358   C254.885071,400.715271 254.844574,405.834137 254.462341,410.791534   C251.090439,409.372223 247.975647,408.219543 244.966644,406.836731   C230.752441,400.304535 217.224075,392.687531 205.908859,381.378418   C207.169052,375.133148 202.828049,371.127014 194.891663,370.957489   C187.999649,362.301208 180.385086,354.388367 175.112366,345.140320   C169.004715,334.427826 164.955826,322.541534 160.013184,311.164825  z"/>
<path fill="#978ECB" opacity="1.000000" stroke="none" d=" M270.062897,411.661987   C290.064789,410.380676 309.168488,405.747070 327.599548,396.089478   C332.266083,393.210724 336.343414,390.646362 340.757812,388.048157   C346.066711,384.324768 351.038513,380.635254 356.310730,376.812439   C366.569275,367.508636 376.112823,357.981689 383.177429,345.872711   C385.704437,341.474243 387.963684,337.296082 390.492737,332.903503   C400.047638,314.804352 405.147278,295.807190 405.963867,275.224609   C405.976318,270.005981 405.945099,265.222839 405.945740,259.970459   C404.065552,248.653259 402.852448,237.618393 400.017853,227.017090   C397.792114,218.692917 393.562378,210.904587 390.160187,202.523163   C387.703796,198.080414 385.310089,193.992767 382.804749,189.589890   C375.140839,176.960037 365.222443,166.698715 354.348114,157.380447   C350.119568,153.756958 345.110565,151.044205 340.243134,147.629959   C335.847748,144.938141 331.666321,142.532974 327.222534,139.858459   C314.657806,133.347977 301.886078,128.534561 287.771423,126.592285   C281.647491,125.668777 275.849854,124.966873 269.585327,124.202118   C264.387970,124.189301 259.657471,124.239342 254.517929,124.276733   C249.158859,124.844101 244.172867,125.212006 239.265533,126.043991   C224.603226,128.529785 210.425415,132.540924 197.148376,140.168610   C192.752457,142.779404 188.671677,145.339081 184.253525,147.934662   C166.708786,158.687851 152.809387,172.706177 141.813354,190.108139   C139.287338,194.502930 137.031143,198.680679 134.501831,203.067505   C131.471069,210.503998 128.713409,217.731384 125.955742,224.958786   C120.943558,224.957321 115.931374,224.955872 110.454033,224.900452   C114.348579,206.425903 122.902328,189.926849 133.930008,174.775284   C148.803619,154.339615 167.533722,138.031998 190.090347,126.597260   C208.582199,117.223091 228.228516,111.699112 249.093414,109.803535   C274.517761,107.493721 298.669189,111.676834 322.161957,120.927147   C340.135101,128.004105 355.951294,138.411514 370.168610,151.541031   C394.223175,173.755142 410.317993,200.639893 417.190033,232.534897   C427.095184,278.507233 419.176605,321.214813 391.731354,359.947266   C376.844513,380.956482 357.963348,397.377075 335.262177,409.214478   C319.577057,417.393433 302.778229,422.437805 285.170563,425.149811   C253.071793,430.093811 222.669907,424.575958 193.563141,411.125793   C179.646530,404.695038 167.116531,395.951721 155.826004,385.419525   C140.071030,370.722778 126.974419,354.111237 118.254097,334.338348   C115.046547,327.065369 112.737411,319.396179 110.003662,311.530579   C115.002998,311.088684 120.017166,311.023865 125.429245,311.394409   C128.811523,318.933807 131.795898,326.037872 134.843842,333.495911   C137.301895,337.935211 139.696381,342.020477 142.192474,346.423523   C149.805038,358.672943 159.190918,368.982300 170.010529,377.930908   C174.560608,381.694183 179.709869,384.733002 184.754181,388.406738   C189.100372,391.101898 193.279114,393.491486 197.731659,396.140503   C215.826797,405.787170 234.916550,410.456146 255.392853,411.776367   C260.593719,411.787903 265.328308,411.724945 270.062897,411.661987  z"/>
<path fill="#10D291" opacity="1.000000" stroke="none" d=" M134.780273,333.141907   C131.795898,326.037872 128.811523,318.933807 125.891785,311.436249   C136.998718,311.036255 148.041031,311.029785 159.548248,311.094055   C164.955826,322.541534 169.004715,334.427826 175.112366,345.140320   C180.385086,354.388367 187.999649,362.301208 194.686920,371.230591   C191.392181,377.138306 187.989471,382.619720 184.586761,388.101166   C179.709869,384.733002 174.560608,381.694183 170.010529,377.930908   C159.190918,368.982300 149.805038,358.672943 142.513748,346.293945   C147.169296,343.279419 151.669662,340.816162 156.022583,338.115265   C160.201004,335.522583 160.466385,333.393860 157.626053,328.515259   C154.816315,323.689178 152.760498,322.853668 148.512482,325.184082   C143.875397,327.727905 139.352783,330.480377 134.780273,333.141907  z"/>
<path fill="#10D291" opacity="1.000000" stroke="none" d=" M142.083191,189.891098   C152.809387,172.706177 166.708786,158.687851 184.418518,148.277679   C188.351517,154.018097 191.782166,159.451370 195.212799,164.884659   C188.570129,173.298004 180.909790,181.116272 175.551102,190.280411   C169.323532,200.930435 165.113663,212.760300 160.020630,224.456619   C148.977310,224.888412 137.941452,224.941681 126.430664,224.976868   C128.713409,217.731384 131.471069,210.503998 134.820282,203.253738   C139.694382,205.725586 143.935364,208.295395 148.271042,210.694031   C152.664169,213.124451 154.678268,212.406601 157.474655,207.708496   C160.526810,202.580688 160.263092,200.472900 155.836121,197.776001   C151.324875,195.027771 146.673309,192.509857 142.083191,189.891098  z"/>
<path fill="none" opacity="1.000000" stroke="none" d=" M135.577393,294.982422   C127.875969,292.839966 125.158043,289.481750 125.096260,282.150879   C125.016365,272.670807 124.998589,263.188660 125.101410,253.709015   C125.190620,245.484650 129.650940,241.078171 137.765381,240.977203   C141.590317,240.929596 145.419113,240.881821 149.241348,240.995834   C156.198410,241.203354 160.788254,245.655136 160.903671,252.656570   C161.070877,262.799896 161.057251,272.949432 160.916199,283.093506   C160.815002,290.370361 156.231354,294.843445 148.986832,295.008179   C144.664734,295.106415 140.338272,295.013580 135.577393,294.982422  M136.893555,284.950897   C140.044373,284.977600 143.216125,284.786224 146.340668,285.086456   C150.214859,285.458710 151.173828,283.793060 151.022903,280.203125   C150.772324,274.242218 150.954956,268.263092 150.954987,262.291656   C150.955032,250.661133 150.955872,250.814606 139.410049,250.880142   C135.745117,250.900940 134.949936,252.281662 135.020218,255.582413   C135.196716,263.872345 135.035110,272.169006 135.120819,280.461792   C135.135315,281.865021 135.705856,283.262543 136.893555,284.950897  z"/>
<path fill="none" opacity="1.000000" stroke="none" d=" M196.646545,292.836487   C188.680099,296.547485 180.687744,295.553741 172.939911,294.077728   C168.644958,293.259552 165.956055,289.459930 165.890152,284.819336   C165.731995,273.681305 165.661560,262.536133 165.894394,251.400909   C166.018860,245.449448 170.522964,241.278503 176.563873,241.035278   C181.212112,240.848129 185.881348,240.836639 190.528076,241.043091   C196.527222,241.309647 200.967178,245.555252 201.086212,251.532303   C201.304672,262.502319 201.423965,273.491486 200.957855,284.446014   C200.839905,287.218170 198.357452,289.889740 196.646545,292.836487  M191.191284,269.497009   C191.191284,263.437897 191.191284,257.378815 191.191284,250.989426   C186.476044,250.989426 182.652664,250.737869 178.899704,251.141373   C177.760712,251.263809 175.949921,253.172745 175.919662,254.302856   C175.675385,263.426575 175.675339,272.562531 175.919067,281.686279   C175.949341,282.819885 178.029282,284.972168 178.841705,284.830444   C182.924042,284.118469 187.721252,287.458313 191.073105,282.905518   C191.476730,282.357269 191.185410,281.284973 191.187317,280.455536   C191.194916,277.135437 191.191132,273.815338 191.191284,269.497009  z"/>
<path fill="none" opacity="1.000000" stroke="none" d=" M102.102524,277.125671   C102.483467,284.041870 101.971497,291.278992 95.086052,293.080841   C87.432251,295.083832 79.065384,294.511719 71.006340,294.553070   C70.305458,294.556671 68.966270,290.738678 69.091789,288.770294   C69.175240,287.461578 71.232712,285.377594 72.590202,285.219818   C76.696526,284.742371 80.892395,285.036041 85.053368,285.027466   C91.892418,285.013336 92.083153,284.838623 92.095589,278.599213   C92.108536,272.102844 91.965019,271.958740 85.312393,271.940247   C81.983559,271.931000 78.654366,271.906189 75.325905,271.941803   C71.061668,271.987457 68.792992,270.106262 68.842072,265.652039   C68.909920,259.494385 68.922081,253.334579 68.837097,247.177368   C68.780502,243.076675 70.520332,240.940170 74.753395,240.962662   C82.409531,241.003342 90.067192,241.051163 97.721909,240.938995   C101.397369,240.885162 102.140564,242.857040 102.151566,246.002167   C102.162857,249.230957 101.187935,251.058762 97.614761,250.995682   C91.644058,250.890244 85.670135,250.966888 79.281273,250.966888   C79.281273,254.647430 79.281273,257.997375 79.281273,261.599854   C86.034065,262.705078 93.990662,259.769623 98.781372,266.559814   C100.736290,269.330658 101.044533,273.263245 102.102524,277.125671  z"/>
<path fill="none" opacity="1.000000" stroke="none" d=" M111.398575,283.885345   C107.356941,279.363953 108.191246,272.604370 112.515900,272.263641   C114.418869,272.113708 117.690636,272.816711 118.125511,273.968689   C119.050667,276.419464 119.320396,279.774933 118.294075,282.055389   C117.691238,283.394836 114.082344,283.381409 111.398575,283.885345  z"/>
<path fill="none" opacity="1.000000" stroke="none" d=" M114.843872,251.966797   C121.259491,252.899277 118.864525,257.587097 118.743217,260.693695   C118.599716,264.368561 115.197777,264.079346 112.549881,263.825867   C107.977936,263.388092 109.207680,259.762604 108.951591,256.932922   C108.578316,252.808365 110.748787,251.596985 114.843872,251.966797  z"/>
<path fill="#FD2BA8" opacity="1.000000" stroke="none" d=" M270.052185,124.264969   C275.849854,124.966873 281.647491,125.668777 287.741272,127.077469   C288.026184,172.926453 287.964233,218.068817 288.119385,263.210449   C288.129547,266.174072 289.203552,269.505676 290.789032,272.035461   C309.232880,301.464386 327.910095,330.746948 346.420624,360.134369   C349.855713,365.587921 352.825684,371.334412 356.010315,376.945740   C351.038513,380.635254 346.066711,384.324768 340.588165,387.709808   C337.695007,383.252502 335.553101,378.928253 332.813934,375.022858   C331.539215,373.205383 329.105591,372.200684 327.197266,370.827576   C312.640930,347.639954 298.086090,324.451416 283.526947,301.265533   C280.702576,296.767639 277.861481,292.280273 275.061951,287.152954   C291.676941,273.083282 284.893799,252.671249 270.046509,246.538971   C270.011536,223.753967 269.780396,201.433762 270.134094,179.122803   C270.240936,172.383286 269.294617,167.001419 262.535187,164.132248   C262.539337,158.775909 262.543457,153.419571 262.962524,147.529327   C268.263947,147.032837 270.182770,144.491699 270.040466,139.754471   C269.885529,134.596069 270.035278,129.428528 270.052185,124.264969  z"/>
<path fill="#6455B1" opacity="1.000000" stroke="none" d=" M262.304016,164.332825   C269.294617,167.001419 270.240936,172.383286 270.134094,179.122803   C269.780396,201.433762 270.011536,223.753967 269.999878,246.537598   C269.981506,247.004578 269.890594,247.025406 269.555359,246.851868   C264.411224,244.899323 259.643219,245.096466 254.909927,246.974060   C254.939835,223.861664 255.170258,200.746643 254.865967,177.638641   C254.784668,171.465332 256.081879,166.940063 262.304016,164.332825  z"/>
<path fill="#8478C1" opacity="1.000000" stroke="none" d=" M270.028107,247.005951   C284.893799,252.671249 291.676941,273.083282 274.935394,286.829285   C273.780151,287.438599 272.785278,287.736542 271.113220,288.009460   C257.722473,282.383728 252.985825,267.749969 260.609192,256.262604   C262.973724,252.699600 266.756897,250.078018 269.890594,247.025421   C269.890594,247.025406 269.981506,247.004578 270.028107,247.005951  z"/>
<path fill="#6D63B6" opacity="1.000000" stroke="none" d=" M269.555359,246.851868   C266.756897,250.078018 262.973724,252.699600 260.609192,256.262604   C252.985825,267.749969 257.722473,282.383728 270.800110,288.051147   C271.021698,288.429871 270.797974,288.664276 269.908508,289.066956   C264.483826,291.067566 259.681213,290.918304 254.912903,289.028748   C245.604202,285.382538 240.433228,278.400452 240.176788,268.587189   C239.914108,258.534790 244.936981,251.263107 254.572174,247.051712   C259.643219,245.096466 264.411224,244.899323 269.555359,246.851868  z"/>
<path fill="#11D191" opacity="1.000000" stroke="none" d=" M254.926559,411.701874   C234.916550,410.456146 215.826797,405.787170 197.898483,395.810608   C200.479370,390.720093 203.167221,386.218933 205.855072,381.717773   C217.224075,392.687531 230.752441,400.304535 244.966644,406.836731   C247.975647,408.219543 251.090439,409.372223 254.522690,410.974854   C254.888901,411.318756 254.926559,411.701874 254.926559,411.701874  z"/>
<path fill="#11D191" opacity="1.000000" stroke="none" d=" M197.463501,140.117493   C210.425415,132.540924 224.603226,128.529785 239.265533,126.043991   C244.172867,125.212006 249.158859,124.844101 254.499466,124.469070   C254.890030,124.674080 254.769958,125.046486 254.769958,125.046486   C236.984344,131.880630 220.513992,140.950043 205.742676,153.741516   C202.695129,149.267410 200.079315,144.692444 197.463501,140.117493  z"/>
<path fill="#D8F4F6" opacity="1.000000" stroke="none" d=" M205.908859,381.378418   C203.167221,386.218933 200.479370,390.720093 197.624695,395.551147   C193.279114,393.491486 189.100372,391.101898 184.754196,388.406738   C187.989471,382.619720 191.392181,377.138306 194.999664,371.383759   C202.828049,371.127014 207.169052,375.133148 205.908859,381.378418  z"/>
<path fill="#D9F3F6" opacity="1.000000" stroke="none" d=" M326.850098,370.947845   C329.105591,372.200684 331.539215,373.205383 332.813934,375.022858   C335.553101,378.928253 337.695007,383.252502 340.251099,387.743652   C336.343414,390.646362 332.266083,393.210724 327.880157,395.836182   C325.275757,391.855408 322.993683,387.805664 320.680939,383.773560   C317.052094,377.447052 317.427246,376.055389 323.841919,372.420715   C324.706726,371.930695 325.614838,371.517120 326.850098,370.947845  z"/>
<path fill="#DAF4F7" opacity="1.000000" stroke="none" d=" M255.392853,411.776367   C254.926559,411.701874 254.888901,411.318756 254.828552,411.135437   C254.844574,405.834137 254.885071,400.715271 255.007568,395.598358   C255.126373,390.636566 256.827698,389.120239 262.160706,389.067932   C268.005188,389.010590 269.874817,390.459320 269.979828,395.421448   C270.088257,400.543732 270.020660,405.669739 270.046509,411.228027   C265.328308,411.724945 260.593719,411.787903 255.392853,411.776367  z"/>
<path fill="#D8F4F6" opacity="1.000000" stroke="none" d=" M197.148376,140.168610   C200.079315,144.692444 202.695129,149.267410 205.583389,154.059143   C207.297623,160.546982 203.836288,164.274887 195.596695,164.898178   C191.782166,159.451370 188.351517,154.018097 184.755890,148.241791   C188.671677,145.339081 192.752457,142.779404 197.148376,140.168610  z"/>
<path fill="#DBF3F7" opacity="1.000000" stroke="none" d=" M254.862564,125.501907   C254.769958,125.046486 254.890030,124.674080 254.908493,124.481735   C259.657471,124.239342 264.387970,124.189301 269.585327,124.202110   C270.035278,129.428528 269.885529,134.596069 270.040466,139.754471   C270.182770,144.491699 268.263947,147.032837 262.959351,147.071381   C255.925446,146.433563 255.023117,145.440323 254.997711,138.831314   C254.981216,134.540009 254.969193,130.248657 254.862564,125.501907  z"/>
<path fill="#6256B1" opacity="1.000000" stroke="none" d=" M254.944550,289.488159   C259.681213,290.918304 264.483826,291.067566 269.683105,289.168030   C270.022705,292.498627 270.137146,295.981171 269.950836,299.447540   C269.699921,304.115631 266.682800,307.054657 262.463623,307.038239   C258.257568,307.021881 255.288498,304.059662 255.042480,299.379456   C254.877594,296.243011 254.988632,293.092041 254.944550,289.488159  z"/>
<path fill="#FE4FB7" opacity="1.000000" stroke="none" d=" M356.310730,376.812439   C352.825684,371.334412 349.855713,365.587921 346.420624,360.134369   C327.910095,330.746948 309.232880,301.464386 290.789032,272.035461   C289.203552,269.505676 288.129547,266.174072 288.119385,263.210449   C287.964233,218.068817 288.026184,172.926453 288.067566,127.299072   C301.886078,128.534561 314.657806,133.347977 327.060516,140.187561   C324.689026,145.115051 322.158173,149.411697 319.761749,153.782059   C317.281433,158.305374 317.930695,160.123825 322.793182,162.971069   C327.975128,166.005386 330.102448,165.722427 332.763580,161.321381   C335.428619,156.913910 337.900543,152.389679 340.457062,147.916595   C345.110565,151.044205 350.119568,153.756958 354.348114,157.380447   C365.222443,166.698715 375.140839,176.960037 382.491882,189.733093   C377.713867,192.839905 373.101624,195.429245 368.571228,198.154648   C364.695648,200.486115 364.985016,203.556046 367.075653,207.048096   C369.181396,210.565369 371.344543,213.673386 376.047546,211.045441   C380.807617,208.385620 385.500549,205.605621 390.222870,202.878235   C393.562378,210.904587 397.792114,218.692917 400.017853,227.017090   C402.852448,237.618393 404.065552,248.653259 405.486450,259.931244   C400.192963,260.352875 395.387909,260.239349 390.589050,260.364380   C385.323029,260.501556 383.500580,262.475281 383.409607,267.723022   C383.313324,273.274292 385.212769,275.536957 390.521667,275.684479   C395.650330,275.826965 400.787018,275.679901 405.920197,275.660034   C405.147278,295.807190 400.047638,314.804352 390.172302,332.724274   C385.154083,330.192749 380.726318,327.625793 376.298187,325.059357   C371.716217,322.403687 369.361603,325.070923 367.203644,328.693939   C365.047668,332.313599 364.555756,335.504303 368.740936,337.950989   C373.443359,340.699982 378.185028,343.381927 382.909637,346.093018   C376.112823,357.981689 366.569275,367.508636 356.310730,376.812439  z"/>
<path fill="#DDF1F6" opacity="1.000000" stroke="none" d=" M405.963867,275.224579   C400.787018,275.679901 395.650330,275.826965 390.521667,275.684479   C385.212769,275.536957 383.313324,273.274292 383.409607,267.723022   C383.500580,262.475281 385.323029,260.501556 390.589050,260.364380   C395.387909,260.239349 400.192963,260.352875 405.454590,260.400452   C405.945099,265.222839 405.976318,270.005981 405.963867,275.224579  z"/>
<path fill="#DCF1F6" opacity="1.000000" stroke="none" d=" M340.243134,147.629959   C337.900543,152.389679 335.428619,156.913910 332.763580,161.321381   C330.102448,165.722427 327.975128,166.005386 322.793182,162.971069   C317.930695,160.123825 317.281433,158.305374 319.761749,153.782059   C322.158173,149.411697 324.689026,145.115051 327.322845,140.456909   C331.666321,142.532974 335.847748,144.938141 340.243134,147.629959  z"/>
<path fill="#D8F4F6" opacity="1.000000" stroke="none" d=" M134.843842,333.495911   C139.352783,330.480377 143.875397,327.727905 148.512482,325.184082   C152.760498,322.853668 154.816315,323.689178 157.626053,328.515259   C160.466385,333.393860 160.201004,335.522583 156.022583,338.115265   C151.669662,340.816162 147.169296,343.279419 142.412140,345.976196   C139.696381,342.020477 137.301895,337.935211 134.843842,333.495911  z"/>
<path fill="#D8F4F6" opacity="1.000000" stroke="none" d=" M141.813354,190.108139   C146.673309,192.509857 151.324875,195.027771 155.836121,197.776001   C160.263092,200.472900 160.526810,202.580688 157.474655,207.708496   C154.678268,212.406601 152.664169,213.124451 148.271042,210.694031   C143.935364,208.295395 139.694382,205.725586 135.093399,203.044647   C137.031143,198.680679 139.287338,194.502930 141.813354,190.108139  z"/>
<path fill="#DCF2F7" opacity="1.000000" stroke="none" d=" M383.177429,345.872711   C378.185028,343.381927 373.443359,340.699982 368.740936,337.950989   C364.555756,335.504303 365.047668,332.313599 367.203644,328.693939   C369.361603,325.070923 371.716217,322.403687 376.298187,325.059357   C380.726318,327.625793 385.154083,330.192749 389.902466,332.938721   C387.963684,337.296082 385.704437,341.474243 383.177429,345.872711  z"/>
<path fill="#DCF2F7" opacity="1.000000" stroke="none" d=" M390.160187,202.523163   C385.500549,205.605621 380.807617,208.385620 376.047546,211.045441   C371.344543,213.673386 369.181396,210.565369 367.075653,207.048096   C364.985016,203.556046 364.695648,200.486115 368.571228,198.154648   C373.101624,195.429245 377.713867,192.839905 382.603485,190.048325   C385.310089,193.992767 387.703796,198.080414 390.160187,202.523163  z"/>
<path fill="#FE52B8" opacity="1.000000" stroke="none" d=" M136.456528,284.806793   C135.705856,283.262543 135.135315,281.865021 135.120819,280.461792   C135.035110,272.169006 135.196716,263.872345 135.020218,255.582413   C134.949936,252.281662 135.745117,250.900940 139.410049,250.880142   C150.955872,250.814606 150.955032,250.661133 150.954987,262.291656   C150.954956,268.263092 150.772324,274.242218 151.022903,280.203125   C151.173828,283.793060 150.214859,285.458710 146.340668,285.086456   C143.216125,284.786224 140.044373,284.977600 136.456528,284.806793  z"/>
<path fill="#FE4FB7" opacity="1.000000" stroke="none" d=" M191.191422,269.996124   C191.191132,273.815338 191.194916,277.135437 191.187317,280.455536   C191.185410,281.284973 191.476730,282.357269 191.073105,282.905518   C187.721252,287.458313 182.924042,284.118469 178.841705,284.830444   C178.029282,284.972168 175.949341,282.819885 175.919067,281.686279   C175.675339,272.562531 175.675385,263.426575 175.919662,254.302856   C175.949921,253.172745 177.760712,251.263809 178.899704,251.141373   C182.652664,250.737869 186.476044,250.989426 191.191284,250.989426   C191.191284,257.378815 191.191284,263.437897 191.191422,269.996124  z"/>
</svg>
